<?xml version="1.0" encoding="utf-8"?>
<!-- Generator: Adobe Illustrator 20.1.0, SVG Export Plug-In . SVG Version: 6.00 Build 0)  -->
<svg version="1.1" id="Layer_1" xmlns="http://www.w3.org/2000/svg" xmlns:xlink="http://www.w3.org/1999/xlink" x="0px" y="0px"
	 viewBox="0 0 1792 1792" style="enable-background:new 0 0 1792 1792;" xml:space="preserve">
<style type="text/css">
	.st0{fill:#708090;}
</style>
<path class="st0" d="M1209,378l-114,328l117,21c110-300.7,165-473.3,165-518c0-37.3-12.7-56-38-56C1301,153,1257.7,228,1209,378z
	 M910,1065l33,88c24.7-28,48.3-50.3,71-67l-33-5.5l-38.5-7L910,1065z M618,169c0,65.3,53,239,159,521c12-6.7,28.3-10,49-10
	c10,0,35,1.7,75,5L780,334c-50-146.7-91-220-123-220c-12.7,0-22.3,5.8-29,17.5C621.3,143.2,618,155.7,618,169z M539,928
	c0,24,17.2,63.7,51.5,119S664,1153.3,708,1200s77.3,70,100,70c9.3,0,17.8-4.3,25.5-13s11.5-17.7,11.5-27c0-16-10.7-50-32-102
	c-8.7-21.3-19.3-45.3-32-72s-28.5-56.3-47.5-89S694,907.3,672,886c-22-21.3-42.7-32-62-32c-13.3,0-28.5,9-45.5,27S539,914.7,539,928
	z M381,1263c0,27.3,8.3,62,25,104c39.3,96.7,100.5,172.3,183.5,227s176.8,82,281.5,82c151.3,0,278.7-56.7,382-170
	c101.3-112.7,152-255,152-427c0-28.7-0.3-51-1-67s-4.5-36.7-11.5-62s-17.2-44-30.5-56c-37.3-32.7-107.8-57.8-211.5-75.5
	S956.7,792,880,792c-24.7,0-41,3.7-49,11c-8,3.3-12,15-12,35c0,22.7,7.2,42.7,21.5,60c14.3,17.3,32.8,30.7,55.5,40
	c22.7,9.3,48.5,17.2,77.5,23.5s58.2,10.2,87.5,11.5s57.7,2.7,85,4s50.7,1.3,70,0h23c16,0,29.3,6.3,40,19c10,12.7,16.3,31,19,55
	c-18.7,18.7-50.7,36.7-96,54c-40.7,14.7-71.7,30-93,46c-42.7,30.7-78.8,68.7-108.5,114s-44.5,91-44.5,137c0,20.7,6.2,50.2,18.5,88.5
	S993,1558,993,1578l-3,12c-2.7,8-4,12.7-4,14c-91.3-6.7-140-78.7-146-216c-5.3,1.3-19,2-41,2c1.3,4.7,2,11.7,2,21
	c0,35.3-13.5,65.2-40.5,89.5S702,1537,666,1537c-54.7,0-110.2-26-166.5-78S415,1354,415,1300c0-22.7,11-45,33-67
	c34.7,42.7,54.7,68,60,76c51.3,69.3,95.7,104,133,104c8,0,16.8-2.8,26.5-8.5S682,1392,682,1384c0-22.7-29.2-71-87.5-145
	s-97.2-111-116.5-111c-28.7,0-52,14.8-70,44.5S381,1232.3,381,1263z M267,1272c0-67.3,14.2-121.7,42.5-163s73.8-70.7,136.5-88
	c-18.7-49.3-28-84-28-104c0-41.3,20.3-82.3,61-123s81.3-61,122-61c19.3,0,42.7,5,70,15C562.3,440,508,251,508,181
	c0-53.3,13.7-96.8,41-130.5S616,0,668,0c87.3,0,195.7,193.7,325,581c4,11.3,6.7,19,8,23c4-10.7,13.7-37.2,29-79.5
	s29.8-81.8,43.5-118.5s31.7-79.2,54-127.5s43.8-89.3,64.5-123s44.2-62.5,70.5-86.5s51.8-36,76.5-36c47.3,0,84.7,16.3,112,49
	s41,73.3,41,122c0,72-53,255.3-159,550c40.7,10,74.2,25.3,100.5,46s45.8,46.7,58.5,78c12.7,31.3,21.3,62.5,26,93.5s7,67.8,7,110.5
	c0,100-15.7,193.3-47,280s-75.3,161.7-132,225s-127,113.3-211,150s-176.7,55-278,55c-74,0-148.3-14-223-42
	c-99.3-38-185.3-101.8-258-191.5S267,1373.3,267,1272z"/>
</svg>
